# xmcd
#
# Track frame offsets: 
#        150
#        4438
#        119778
#        160706
#        165604
#        228175
#        267524
#
# Disc length: 4116 seconds
#
# Revision: 0
# Processed by: cddbd v1.5.2PL0 Copyright (c) Steve Scherf et al.
# Submitted via: ExactAudioCopy v1.0b1
#
DISCID=58101207
DTITLE=Albert Einstein - Historic Recordings 1930-1947
DYEAR=2005
DGENRE=Speech
TTITLE0=Einstein on E=MC2 [1947]
TTITLE1=Bernard Shaws Speech [1930]
TTITLE2=Einsteins Speech 'Jewish Community' [1930]
TTITLE3=At The Albert Hall, London [1933]
TTITLE4=I'm An American [1940]
TTITLE5=The Common Language Of Science [1941]
TTITLE6=The Post War World [1945]
EXTD=
EXTT0=
EXTT1=
EXTT2=
EXTT3=
EXTT4=
EXTT5=
EXTT6=
PLAYORDER=
